<svg width="98" height="53" fill="none" xmlns="http://www.w3.org/2000/svg"><path fill-rule="evenodd" clip-rule="evenodd" d="M36.844 1a1 1 0 0 0-1 1v4.275a1 1 0 0 0 1 1h36.327c10.127 0 18.08 7.797 18.08 17.89 0 .285.232.517.518.517h5.262a.517.517 0 0 0 .517-.518C97.548 11.675 86.706 1 73.171 1H36.844ZM7.38 26.12a.438.438 0 0 0-.438-.439H1.438A.438.438 0 0 0 1 26.12c0 13.65 10.223 24.918 23.443 25.656l42.341.038a1 1 0 0 0 1.001-1v-4.58a1 1 0 0 0-1-1H25.901C15.664 45.206 7.38 36.69 7.38 26.12Z" fill="#6B7B84" stroke="#80949F" stroke-width=".5"/><path fill-rule="evenodd" clip-rule="evenodd" d="M28.415 40.2c2.74 0 5.02-.532 7.274-1.627l.155-.146v-7.834l-.843 1.08c-1.622 1.772-3.801 2.748-6.266 2.748-4.592 0-9.203-2.968-9.203-8.64 0-4.286 3.18-8.841 9.041-8.841 1.17 0 4.014.276 6.424 2.835l.847 1.044V13.02l-.148-.147c-2.296-1.15-4.638-1.71-7.308-1.71-4.567 0-8.132 1.202-10.97 3.673-1.8 1.55-4.803 5.02-4.803 10.864 0 4.32 1.538 7.695 4.826 10.622 3.058 2.682 6.45 3.878 10.974 3.878Z" fill="#6B7B84"/><path d="M28.415 40.2c2.74 0 5.02-.532 7.274-1.627l.155-.146v-7.834l-.843 1.08c-1.622 1.772-3.801 2.748-6.266 2.748-4.592 0-9.203-2.968-9.203-8.64 0-4.286 3.18-8.841 9.041-8.841 1.17 0 4.014.276 6.424 2.835l.847 1.044V13.02l-.148-.147c-2.296-1.15-4.638-1.71-7.308-1.71-4.567 0-8.132 1.202-10.97 3.673-1.8 1.55-4.803 5.02-4.803 10.864 0 4.32 1.538 7.695 4.826 10.622 3.058 2.682 6.45 3.878 10.974 3.878" stroke="#80949F" stroke-width=".5"/><path fill-rule="evenodd" clip-rule="evenodd" d="M48.185 17.696h1.364c1.252 0 2.678.069 3.758.804.527.377 1.411 1.249 1.411 2.832 0 1.17-.517 2.22-1.37 2.874-1.096.794-2.397.749-3.443.749h-1.72v-7.259Zm3.066 12.53c3.231 0 5.76-.933 7.517-2.689 2.16-2.156 2.484-5.122 2.484-6.686 0-1.673-.397-4.937-3.057-7.3-2.18-1.91-4.507-2.388-7.789-2.388h-8.754V40.2h6.658v-9.975h2.94Z" fill="#6B7B84"/><path d="M48.185 17.696v-.25h-.25v.25h.25Zm5.122.804.145-.203-.004-.003-.141.206Zm.04 5.706.147.202.005-.004-.152-.198Zm-5.162.749h-.25v.25h.25v-.25Zm10.583 2.582-.176-.177.176.177Zm-.573-13.986.166-.187-.001-.001-.165.188Zm-16.543-2.388v-.25h-.25v.25h.25Zm0 29.037h-.25v.25h.25v-.25Zm6.658 0v.25h.25v-.25h-.25Zm0-9.975v-.25h-.25v.25h.25Zm-.125-12.279h1.364v-.5h-1.364v.5Zm1.364 0c1.258 0 2.609.074 3.617.76l.282-.412c-1.151-.785-2.653-.848-3.898-.848v.5Zm3.613.758c.487.348 1.306 1.153 1.306 2.628h.5c0-1.692-.95-2.63-1.516-3.035l-.29.407Zm1.306 2.628c0 1.096-.483 2.07-1.273 2.675l.304.397c.92-.704 1.47-1.828 1.47-3.072h-.5Zm-1.267 2.671c-1.018.739-2.23.702-3.296.702v.5c1.026 0 2.417.054 3.59-.797l-.294-.405Zm-3.296.702h-1.72v.5h1.72v-.5Zm-1.47.25v-7.259h-.5v7.259h.5Zm2.816 5.52c3.28 0 5.88-.947 7.694-2.76l-.353-.355c-1.699 1.698-4.158 2.615-7.341 2.615v.5Zm7.694-2.76c2.232-2.228 2.557-5.279 2.557-6.864h-.5c0 1.542-.321 4.424-2.41 6.51l.353.353Zm2.557-6.864c0-1.701-.402-5.054-3.14-7.487l-.333.374c2.581 2.293 2.973 5.468 2.973 7.113h.5Zm-3.142-7.488c-2.246-1.968-4.644-2.45-7.954-2.45v.5c3.255 0 5.51.473 7.624 2.326l.33-.376Zm-7.954-2.45h-8.754v.5h8.754v-.5Zm-9.004.25V40.2h.5V11.163h-.5Zm.25 29.287h6.658v-.5h-6.658v.5Zm6.908-.25v-9.975h-.5V40.2h.5Zm-.25-9.725h2.94v-.5h-2.94v.5Z" fill="#80949F"/><path fill-rule="evenodd" clip-rule="evenodd" d="M81.227 24.876c-1.448-1.283-3.469-2.026-5.762-2.797-1.634-.569-2.535-.882-3.135-1.43-.474-.402-.685-.838-.685-1.415 0-1.264.859-2.615 3.27-2.615 1.639 0 3.011.7 4.079 2.082l.423.548 3.517-4.476-.32-.321c-2.151-2.152-4.985-3.29-8.196-3.29-6.478 0-9.378 4.215-9.378 8.392 0 2.242.799 4.05 2.37 5.37 1.408 1.207 3.124 1.883 4.77 2.434l.185.062c1.462.483 2.974.983 3.876 1.79.628.578.908 1.205.908 2.034 0 1.9-1.496 3.177-3.723 3.177-1.76 0-4.079-.863-5.305-3.284l-.32-.634-4.371 4.045.257.365c1.395 1.975 4.541 5.287 9.946 5.287 5.96 0 10.123-3.832 10.123-9.317 0-3.138-1.377-5-2.53-6.007Z" fill="#6B7B84"/><path d="M81.227 24.876c-1.448-1.283-3.469-2.026-5.762-2.797-1.634-.569-2.535-.882-3.135-1.43-.474-.402-.685-.838-.685-1.415 0-1.264.859-2.615 3.27-2.615 1.639 0 3.011.7 4.079 2.082l.423.548 3.517-4.476-.32-.321c-2.151-2.152-4.985-3.29-8.196-3.29-6.478 0-9.378 4.215-9.378 8.392 0 2.242.799 4.05 2.37 5.37 1.408 1.207 3.124 1.883 4.77 2.434l.185.062c1.462.483 2.974.983 3.876 1.79.628.578.908 1.205.908 2.034 0 1.9-1.496 3.177-3.723 3.177-1.76 0-4.079-.863-5.305-3.284l-.32-.634-4.371 4.045.257.365c1.395 1.975 4.541 5.287 9.946 5.287 5.96 0 10.123-3.832 10.123-9.317 0-3.138-1.377-5-2.53-6.007" stroke="#80949F" stroke-width=".5"/></svg>